<svg xmlns="http://www.w3.org/2000/svg" xmlns:xlink="http://www.w3.org/1999/xlink" viewBox="0 0 85.5 86" xmlns:v="https://vecta.io/nano"><g transform="matrix(1.3333333 0 0 -1.3333333 -2255.9999436 2391.6850072)"><g transform="translate(-279.73939 -593.3326)"><defs><path id="A" d="M1972.4 2354.6c0 17.3 14 31.3 31.3 31.3s31.3-14 31.3-31.3c0-.8 0-1.7-.1-2.5v-28.6h-28.2c-1-.1-2-.1-3-.1-17.3-.1-31.3 13.9-31.3 31.2z"/></defs><clipPath id="B"><use xlink:href="#A"/></clipPath><g clip-path="url(#B)"><linearGradient id="C" gradientUnits="userSpaceOnUse" x1="1975.0914" y1="2368.365901" x2="2092.4218" y2="2311.034001"><stop offset="0" stop-color="#05a1e6"/><stop offset="1" stop-color="#a274c1"/></linearGradient><path d="M1972.4 2354.6c0 17.3 14 31.3 31.3 31.3s31.3-14 31.3-31.3c0-.8 0-1.7-.1-2.5v-28.6h-28.2c-1-.1-2-.1-3-.1-17.3-.1-31.3 13.9-31.3 31.2z" fill="url(#C)"/></g></g><path d="M1714.3 1755.3c1-.4 1.7-.8 2-1.1s.5-.8.5-1.6c0-.6-.2-1.2-.6-1.6-.4-.5-.8-.7-1.3-.7-.3 0-.5.1-.8.2s-.7.3-1.2.5l-12.8 6.1-1.3.6c-.5.2-.9.5-1.3.8-.3.3-.6.6-.8 1.1s-.3 1-.3 1.7.1 1.2.3 1.7.5.8.8 1.1.7.5 1.1.7l1.5.7 12.7 6.3c1 .5 1.7.7 2.1.7.5 0 .9-.2 1.3-.7s.6-1 .6-1.7c0-.4-.1-.7-.2-1s-.3-.5-.5-.7-.5-.4-.9-.6l-1.1-.5-13.6-6.1 13.8-5.9zm19.5-.1c-1-.4-1.7-.8-2-1.1s-.5-.8-.5-1.6c0-.6.2-1.2.6-1.6.4-.5.8-.7 1.3-.7.3 0 .5.1.8.2s.7.3 1.2.5l12.8 6.1 1.3.6c.5.2.9.5 1.3.8s.6.6.8 1.1.3 1 .3 1.7-.1 1.2-.3 1.7-.5.8-.8 1.1-.7.5-1.1.7l-1.5.7-12.7 6.3c-1 .5-1.7.7-2.1.7-.5 0-.9-.2-1.3-.7s-.6-1-.6-1.7c0-.4.1-.7.2-1s.3-.5.5-.7.5-.4.9-.6l1.1-.5 13.6-6.1-13.8-5.9z" fill-rule="evenodd" fill="#fff"/></g></svg>