<?xml version="1.0" encoding="utf-8"?>
<!-- Generator: Adobe Illustrator 24.2.0, SVG Export Plug-In . SVG Version: 6.00 Build 0)  -->
<svg version="1.1"
	 id="svg2" inkscape:version="0.92.4 (5da689c313, 2019-01-14)" xmlns:cc="http://creativecommons.org/ns#" xmlns:dc="http://purl.org/dc/elements/1.1/" xmlns:inkscape="http://www.inkscape.org/namespaces/inkscape" xmlns:rdf="http://www.w3.org/1999/02/22-rdf-syntax-ns#" xmlns:sodipodi="http://sodipodi.sourceforge.net/DTD/sodipodi-0.dtd" xmlns:svg="http://www.w3.org/2000/svg"
	 xmlns="http://www.w3.org/2000/svg" xmlns:xlink="http://www.w3.org/1999/xlink" x="0px" y="0px" viewBox="0 0 85.5 86"
	 style="enable-background:new 0 0 85.5 86;" xml:space="preserve">
<style type="text/css">
	.st0{clip-path:url(#SVGID_2_);}
	.st1{fill:url(#path92_1_);}
	.st2{display:none;fill-rule:evenodd;clip-rule:evenodd;fill:#696267;}
	.st3{display:none;fill-rule:evenodd;clip-rule:evenodd;fill:#05A1E6;}
	.st4{fill-rule:evenodd;clip-rule:evenodd;fill:#FFFFFF;}
</style>
<sodipodi:namedview  bordercolor="#666666" borderopacity="1" gridtolerance="10" guidetolerance="10" id="namedview4" inkscape:current-layer="g80" inkscape:cx="232.50408" inkscape:cy="158.8785" inkscape:pageopacity="0" inkscape:pageshadow="2" inkscape:window-height="1323" inkscape:window-maximized="1" inkscape:window-width="2560" inkscape:window-x="0" inkscape:window-y="0" inkscape:zoom="3.36742" objecttolerance="10" pagecolor="#ffffff" showgrid="false" units="mm">
	</sodipodi:namedview>
<g id="g10" transform="matrix(1.3333333,0,0,-1.3333333,0,279.68506)" inkscape:groupmode="layer" inkscape:label="logo">
	<g id="g12" transform="translate(-1692,-1584)">
		<g id="g78" transform="translate(-279.73939,-593.3326)">
			<g>
				<g>
					<defs>
						<path id="SVGID_1_" d="M1972.4,2354.6c0,17.3,14,31.3,31.3,31.3s31.3-14,31.3-31.3c0-0.8,0-1.7-0.1-2.5v-28.6h-28.2
							c-1-0.1-2-0.1-3-0.1C1986.4,2323.3,1972.4,2337.3,1972.4,2354.6z"/>
					</defs>
					<clipPath id="SVGID_2_">
						<use xlink:href="#SVGID_1_"  style="overflow:visible;"/>
					</clipPath>
					<g id="g80" class="st0">
						
							<linearGradient id="path92_1_" gradientUnits="userSpaceOnUse" x1="4513.0015" y1="4532.9736" x2="4601.0015" y2="4489.9736" gradientTransform="matrix(1.3333 0 0 1.3333 -4042.0935 -3675.4478)">
							<stop  offset="0" style="stop-color:#05A1E6"/>
							<stop  offset="1" style="stop-color:#A274C1"/>
						</linearGradient>
						<path id="path92" inkscape:connector-curvature="0" class="st1" d="M1972.4,2354.6c0,17.3,14,31.3,31.3,31.3
							s31.3-14,31.3-31.3c0-0.8,0-1.7-0.1-2.5v-28.6h-28.2c-1-0.1-2-0.1-3-0.1C1986.4,2323.3,1972.4,2337.3,1972.4,2354.6z"/>
					</g>
				</g>
			</g>
		</g>
		<path id="path102" inkscape:connector-curvature="0" class="st2" d="M1673.3,1715h6.6v-23c0-2.9-0.9-5.2-2.6-6.9
			c-1.7-1.8-4.3-2.6-7.7-2.6c-3.1,0-5.4,0.8-7.1,2.4s-2.6,4.1-2.6,7.3v3.2h6v-2.9c0-1.6,0.3-2.8,0.9-3.6s1.5-1.2,2.9-1.2
			c1.5,0,2.5,0.4,3,1.1s0.7,2,0.7,3.7v22.5H1673.3z"/>
		<path id="path104" inkscape:connector-curvature="0" class="st2" d="M1720.9,1697.5c0,0.9-0.2,1.6-0.4,2.2
			c-0.3,0.6-0.6,1.2-1.1,1.6c-0.4,0.4-0.9,0.7-1.5,0.9c-0.6,0.2-1.2,0.3-1.8,0.3c-1.2,0-2.3-0.4-3.2-1.3s-1.4-2.2-1.5-3.8h9.5
			V1697.5z M1711.2,1693.6c0.1-1.8,0.6-3.2,1.5-4.2s2.2-1.6,3.7-1.6c1,0,1.9,0.2,2.7,0.7c0.8,0.5,1.3,1.1,1.5,1.9h6.3
			c-0.7-2.4-2-4.2-3.8-5.5s-3.9-1.9-6.4-1.9c-7.8,0-11.6,4.2-11.6,12.7c0,1.8,0.3,3.4,0.8,4.9s1.2,2.7,2.2,3.7s2.1,1.8,3.5,2.4
			s3,0.8,4.8,0.8c3.6,0,6.3-1.2,8.2-3.5c1.8-2.3,2.8-5.8,2.8-10.4H1711.2z"/>
		<path id="path106" inkscape:connector-curvature="0" class="st2" d="M1728.4,1683.6v4.7l11.9,13.7h-11.1v4.9h18.9v-5l-11.9-13.3
			h12.2v-5L1728.4,1683.6L1728.4,1683.6z"/>
		<path id="path108" inkscape:connector-curvature="0" class="st3" d="M1751.8,1683.6v31.4h6.6v-25.7h15.6v-5.7L1751.8,1683.6z"/>
		<path id="path110" inkscape:connector-curvature="0" class="st3" d="M1777.1,1683.6v25.9h-9.5v5.5h25.6v-5.5h-9.5v-25.9H1777.1z"
			/>
		<path id="path112" inkscape:connector-curvature="0" class="st3" d="M1794.4,1683.6v31.4h6.6v-31.4H1794.4z"/>
		<path id="path114" inkscape:connector-curvature="0" class="st2" d="M1696.1,1707h6.6v-14.8c0-2.9-0.9-5.2-2.6-6.9
			c-1.7-1.8-4.3-2.6-7.7-2.6c-3.1,0-5.4,0.8-7.1,2.4s-2.6,4.1-2.6,7.3v14.7h6v-14.4c0-1.6,0.3-2.8,0.9-3.6s1.5-1.2,2.9-1.2
			c1.5,0,2.5,0.4,3,1.1s0.7,2,0.7,3.7v14.3H1696.1z"/>
		<path id="path116" inkscape:connector-curvature="0" class="st4" d="M1714.3,1755.3c1-0.4,1.7-0.8,2-1.1s0.5-0.8,0.5-1.6
			c0-0.6-0.2-1.2-0.6-1.6c-0.4-0.5-0.8-0.7-1.3-0.7c-0.3,0-0.5,0.1-0.8,0.2s-0.7,0.3-1.2,0.5l-12.8,6.1l-1.3,0.6
			c-0.5,0.2-0.9,0.5-1.3,0.8c-0.3,0.3-0.6,0.6-0.8,1.1c-0.2,0.5-0.3,1-0.3,1.7s0.1,1.2,0.3,1.7s0.5,0.8,0.8,1.1
			c0.3,0.3,0.7,0.5,1.1,0.7s0.9,0.4,1.5,0.7l12.7,6.3c1,0.5,1.7,0.7,2.1,0.7c0.5,0,0.9-0.2,1.3-0.7s0.6-1,0.6-1.7
			c0-0.4-0.1-0.7-0.2-1s-0.3-0.5-0.5-0.7s-0.5-0.4-0.9-0.6s-0.8-0.4-1.1-0.5l-13.6-6.1L1714.3,1755.3z"/>
		<path id="path118" inkscape:connector-curvature="0" class="st4" d="M1733.8,1755.2c-1-0.4-1.7-0.8-2-1.1s-0.5-0.8-0.5-1.6
			c0-0.6,0.2-1.2,0.6-1.6c0.4-0.5,0.8-0.7,1.3-0.7c0.3,0,0.5,0.1,0.8,0.2s0.7,0.3,1.2,0.5l12.8,6.1l1.3,0.6c0.5,0.2,0.9,0.5,1.3,0.8
			s0.6,0.6,0.8,1.1s0.3,1,0.3,1.7s-0.1,1.2-0.3,1.7s-0.5,0.8-0.8,1.1s-0.7,0.5-1.1,0.7s-0.9,0.4-1.5,0.7l-12.7,6.3
			c-1,0.5-1.7,0.7-2.1,0.7c-0.5,0-0.9-0.2-1.3-0.7s-0.6-1-0.6-1.7c0-0.4,0.1-0.7,0.2-1s0.3-0.5,0.5-0.7s0.5-0.4,0.9-0.6
			s0.8-0.4,1.1-0.5l13.6-6.1L1733.8,1755.2z"/>
	</g>
</g>
</svg>
